<svg width="3197" height="1923" xmlns="http://www.w3.org/2000/svg" xmlns:xlink="http://www.w3.org/1999/xlink" xml:space="preserve" overflow="hidden"><defs><linearGradient x1="3175" y1="1070.5" x2="276" y2="1070.5" gradientUnits="userSpaceOnUse" spreadMethod="reflect" id="fill0"><stop offset="0" stop-color="#212121"/><stop offset="0.5" stop-color="#343434"/><stop offset="1" stop-color="#404040"/></linearGradient><linearGradient x1="3175" y1="1275.5" x2="276" y2="1275.5" gradientUnits="userSpaceOnUse" spreadMethod="reflect" id="fill1"><stop offset="0" stop-color="#212121"/><stop offset="0.5" stop-color="#343434"/><stop offset="1" stop-color="#404040"/></linearGradient><linearGradient x1="3175" y1="1479.5" x2="276" y2="1479.5" gradientUnits="userSpaceOnUse" spreadMethod="reflect" id="fill2"><stop offset="0" stop-color="#212121"/><stop offset="0.5" stop-color="#343434"/><stop offset="1" stop-color="#404040"/></linearGradient><linearGradient x1="3175" y1="1893.5" x2="276" y2="1893.5" gradientUnits="userSpaceOnUse" spreadMethod="reflect" id="fill3"><stop offset="0" stop-color="#212121"/><stop offset="0.5" stop-color="#343434"/><stop offset="1" stop-color="#404040"/></linearGradient></defs><g transform="translate(-250 -299)"><rect x="276" y="978" width="2899" height="185" fill="url(#fill0)"/><text fill="#FFFFFF" font-family="Aptos,Aptos_MSFontService,sans-serif" font-weight="400" font-size="48" transform="matrix(1 0 0 1 309.362 1086)">Layer 1</text><rect x="276" y="1183" width="2899" height="185" fill="url(#fill1)"/><text fill="#FFFFFF" font-family="Aptos,Aptos_MSFontService,sans-serif" font-weight="400" font-size="48" transform="matrix(1 0 0 1 309.362 1290)">Layer 2</text><rect x="276" y="1387" width="2899" height="185" fill="url(#fill2)"/><text fill="#FFFFFF" font-family="Aptos,Aptos_MSFontService,sans-serif" font-weight="400" font-size="48" transform="matrix(1 0 0 1 309.362 1495)">Layer 3</text><rect x="276" y="1801" width="2899" height="185" fill="url(#fill3)"/><text fill="#FFFFFF" font-family="Aptos,Aptos_MSFontService,sans-serif" font-weight="400" font-size="48" transform="matrix(1 0 0 1 309.361 1880)">Pipeline</text><text fill="#FFFFFF" font-family="Aptos,Aptos_MSFontService,sans-serif" font-weight="400" font-size="48" transform="matrix(1 0 0 1 309.361 1938)">Specific</text><path d="M559.5 612.063 3168.53 612.063 3168.53 618.938 559.5 618.938ZM3142.77 596.49 3175.36 615.501 3142.77 634.511C3141.13 635.468 3139.03 634.914 3138.07 633.274 3137.12 631.634 3137.67 629.53 3139.31 628.573L3166.81 612.531 3166.81 618.47 3139.31 602.428C3137.67 601.471 3137.12 599.367 3138.07 597.727 3139.03 596.087 3141.13 595.533 3142.77 596.49Z"/><text font-family="Aptos,Aptos_MSFontService,sans-serif" font-weight="700" font-size="37" transform="matrix(1 0 0 1 525.088 1638)">.</text><text font-family="Aptos,Aptos_MSFontService,sans-serif" font-weight="700" font-size="37" transform="matrix(1 0 0 1 525.088 1682)">.</text><text font-family="Aptos,Aptos_MSFontService,sans-serif" font-weight="700" font-size="37" transform="matrix(1 0 0 1 525.088 1726)">.</text><path d="M793.5 749.333C793.5 732.305 807.304 718.5 824.333 718.5L947.667 718.5C964.696 718.5 978.5 732.305 978.5 749.333L978.5 1979.67C978.5 1996.7 964.696 2010.5 947.667 2010.5L824.333 2010.5C807.304 2010.5 793.5 1996.7 793.5 1979.67Z" stroke="#1C2753" stroke-width="6.875" stroke-miterlimit="8" fill="#4E67C8" fill-rule="evenodd"/><path d="M845.5 652.5 845.5 1986.75" stroke="#000000" stroke-width="6.875" stroke-miterlimit="8" fill="none" fill-rule="evenodd"/><path d="M925.5 615.5 925.5 1986.51" stroke="#000000" stroke-width="6.875" stroke-miterlimit="8" fill="none" fill-rule="evenodd"/><path d="M0 0 80.1643 0.000360892" stroke="#000000" stroke-width="6.875" stroke-miterlimit="8" fill="none" fill-rule="evenodd" transform="matrix(1 0 0 -1 845.5 1986.5)"/><path d="M848.938 615.5 848.938 637.676 842.063 637.676 842.063 615.5ZM859.25 633.092 845.5 660.592 831.75 633.092Z"/><text font-family="Aptos,Aptos_MSFontService,sans-serif" font-weight="400" font-size="37" transform="matrix(0.77749 -0.628895 0.628895 0.77749 889.11 573)">Input Validation</text><path d="M1223.5 749.333C1223.5 732.305 1237.3 718.5 1254.33 718.5L1377.67 718.5C1394.7 718.5 1408.5 732.305 1408.5 749.333L1408.5 1979.67C1408.5 1996.7 1394.7 2010.5 1377.67 2010.5L1254.33 2010.5C1237.3 2010.5 1223.5 1996.7 1223.5 1979.67Z" stroke="#1C2753" stroke-width="6.875" stroke-miterlimit="8" fill="#4E67C8" fill-rule="evenodd"/><path d="M1275.5 652.5 1275.5 1986.75" stroke="#000000" stroke-width="6.875" stroke-miterlimit="8" fill="none" fill-rule="evenodd"/><path d="M1355.5 615.5 1355.5 1986.51" stroke="#000000" stroke-width="6.875" stroke-miterlimit="8" fill="none" fill-rule="evenodd"/><path d="M0 0 80.1643 0.000360892" stroke="#000000" stroke-width="6.875" stroke-miterlimit="8" fill="none" fill-rule="evenodd" transform="matrix(1 0 0 -1 1275.5 1986.5)"/><path d="M1278.94 615.5 1278.94 637.676 1272.06 637.676 1272.06 615.5ZM1289.25 633.092 1275.5 660.592 1261.75 633.092Z"/><text font-family="Aptos,Aptos_MSFontService,sans-serif" font-weight="400" font-size="37" transform="matrix(0.77749 -0.628895 0.628895 0.77749 1319.14 599)">Vertex Definition</text><path d="M1011.5 749.333C1011.5 732.305 1025.3 718.5 1042.33 718.5L1165.67 718.5C1182.7 718.5 1196.5 732.305 1196.5 749.333L1196.5 1979.67C1196.5 1996.7 1182.7 2010.5 1165.67 2010.5L1042.33 2010.5C1025.3 2010.5 1011.5 1996.7 1011.5 1979.67Z" stroke="#1C2753" stroke-width="6.875" stroke-miterlimit="8" fill="#4E67C8" fill-rule="evenodd"/><path d="M1063.5 652.5 1063.5 1986.75" stroke="#000000" stroke-width="6.875" stroke-miterlimit="8" fill="none" fill-rule="evenodd"/><path d="M1143.5 615.5 1143.5 1986.51" stroke="#000000" stroke-width="6.875" stroke-miterlimit="8" fill="none" fill-rule="evenodd"/><path d="M0 0 80.1643 0.000360892" stroke="#000000" stroke-width="6.875" stroke-miterlimit="8" fill="none" fill-rule="evenodd" transform="matrix(1 0 0 -1 1063.5 1986.5)"/><path d="M1066.94 615.5 1066.94 637.676 1060.06 637.676 1060.06 615.5ZM1077.25 633.092 1063.5 660.592 1049.75 633.092Z"/><text font-family="Aptos,Aptos_MSFontService,sans-serif" font-weight="400" font-size="37" transform="matrix(0.77749 -0.628895 0.628895 0.77749 1106.84 573)">Computation</text><path d="M1447.5 749.333C1447.5 732.305 1461.3 718.5 1478.33 718.5L1601.67 718.5C1618.7 718.5 1632.5 732.305 1632.5 749.333L1632.5 1979.67C1632.5 1996.7 1618.7 2010.5 1601.67 2010.5L1478.33 2010.5C1461.3 2010.5 1447.5 1996.7 1447.5 1979.67Z" stroke="#1C2753" stroke-width="6.875" stroke-miterlimit="8" fill="#4E67C8" fill-rule="evenodd"/><path d="M1499.5 652.5 1499.5 1986.75" stroke="#000000" stroke-width="6.875" stroke-miterlimit="8" fill="none" fill-rule="evenodd"/><path d="M1579.5 615.5 1579.5 1986.51" stroke="#000000" stroke-width="6.875" stroke-miterlimit="8" fill="none" fill-rule="evenodd"/><path d="M0 0 80.1643 0.000360892" stroke="#000000" stroke-width="6.875" stroke-miterlimit="8" fill="none" fill-rule="evenodd" transform="matrix(1 0 0 -1 1499.5 1986.5)"/><path d="M1502.94 615.5 1502.94 637.676 1496.06 637.676 1496.06 615.5ZM1513.25 633.092 1499.5 660.592 1485.75 633.092Z"/><text font-family="Aptos,Aptos_MSFontService,sans-serif" font-weight="400" font-size="37" transform="matrix(0.77749 -0.628895 0.628895 0.77749 1543.34 573)">Projection</text><path d="M1814.5 749.333C1814.5 732.305 1828.3 718.5 1845.33 718.5L1968.67 718.5C1985.7 718.5 1999.5 732.305 1999.5 749.333L1999.5 1979.67C1999.5 1996.7 1985.7 2010.5 1968.67 2010.5L1845.33 2010.5C1828.3 2010.5 1814.5 1996.7 1814.5 1979.67Z" stroke="#1C2753" stroke-width="6.875" stroke-miterlimit="8" fill="#4E67C8" fill-rule="evenodd"/><path d="M1866.5 652.5 1866.5 1986.75" stroke="#000000" stroke-width="6.875" stroke-miterlimit="8" fill="none" fill-rule="evenodd"/><path d="M1947.5 615.5 1947.5 1986.51" stroke="#000000" stroke-width="6.875" stroke-miterlimit="8" fill="none" fill-rule="evenodd"/><path d="M0 0 80.1643 0.000360892" stroke="#000000" stroke-width="6.875" stroke-miterlimit="8" fill="none" fill-rule="evenodd" transform="matrix(1 0 0 -1 1866.5 1986.5)"/><path d="M1869.94 615.5 1869.94 637.676 1863.06 637.676 1863.06 615.5ZM1880.25 633.092 1866.5 660.592 1852.75 633.092Z"/><text font-family="Aptos,Aptos_MSFontService,sans-serif" font-weight="400" font-size="37" transform="matrix(0.77749 -0.628895 0.628895 0.77749 1910.42 573)">Anchorage</text><path d="M2398.5 749.333C2398.5 732.305 2412.3 718.5 2429.33 718.5L2552.67 718.5C2569.7 718.5 2583.5 732.305 2583.5 749.333L2583.5 1979.67C2583.5 1996.7 2569.7 2010.5 2552.67 2010.5L2429.33 2010.5C2412.3 2010.5 2398.5 1996.7 2398.5 1979.67Z" stroke="#1C2753" stroke-width="6.875" stroke-miterlimit="8" fill="#4E67C8" fill-rule="evenodd"/><path d="M2450.5 652.5 2450.5 1986.75" stroke="#000000" stroke-width="6.875" stroke-miterlimit="8" fill="none" fill-rule="evenodd"/><path d="M2530.5 615.5 2530.5 1986.51" stroke="#000000" stroke-width="6.875" stroke-miterlimit="8" fill="none" fill-rule="evenodd"/><path d="M0 0 80.1643 0.000360892" stroke="#000000" stroke-width="6.875" stroke-miterlimit="8" fill="none" fill-rule="evenodd" transform="matrix(1 0 0 -1 2450.5 1986.5)"/><path d="M2453.94 615.5 2453.94 637.676 2447.06 637.676 2447.06 615.5ZM2464.25 633.092 2450.5 660.592 2436.75 633.092Z"/><text font-family="Aptos,Aptos_MSFontService,sans-serif" font-weight="400" font-size="37" transform="matrix(0.77749 -0.628895 0.628895 0.77749 2494.01 573)">Input Validation</text><path d="M2955.5 749.333C2955.5 732.305 2969.3 718.5 2986.33 718.5L3109.67 718.5C3126.7 718.5 3140.5 732.305 3140.5 749.333L3140.5 1979.67C3140.5 1996.7 3126.7 2010.5 3109.67 2010.5L2986.33 2010.5C2969.3 2010.5 2955.5 1996.7 2955.5 1979.67Z" stroke="#1C2753" stroke-width="6.875" stroke-miterlimit="8" fill="#4E67C8" fill-rule="evenodd"/><path d="M3007.5 652.5 3007.5 1986.75" stroke="#000000" stroke-width="6.875" stroke-miterlimit="8" fill="none" fill-rule="evenodd"/><path d="M3087.5 615.5 3087.5 1986.51" stroke="#000000" stroke-width="6.875" stroke-miterlimit="8" fill="none" fill-rule="evenodd"/><path d="M0 0 80.1643 0.000360892" stroke="#000000" stroke-width="6.875" stroke-miterlimit="8" fill="none" fill-rule="evenodd" transform="matrix(1 0 0 -1 3007.5 1986.5)"/><path d="M3010.94 615.5 3010.94 637.676 3004.06 637.676 3004.06 615.5ZM3021.25 633.092 3007.5 660.592 2993.75 633.092Z"/><text font-family="Aptos,Aptos_MSFontService,sans-serif" font-weight="400" font-size="37" transform="matrix(0.77749 -0.628895 0.628895 0.77749 3051 573)">Typesetting</text><path d="M2178.5 749.333C2178.5 732.305 2192.3 718.5 2209.33 718.5L2332.67 718.5C2349.7 718.5 2363.5 732.305 2363.5 749.333L2363.5 1979.67C2363.5 1996.7 2349.7 2010.5 2332.67 2010.5L2209.33 2010.5C2192.3 2010.5 2178.5 1996.7 2178.5 1979.67Z" stroke="#1C2753" stroke-width="6.875" stroke-miterlimit="8" fill="#4E67C8" fill-rule="evenodd"/><path d="M2230.5 652.5 2230.5 1986.75" stroke="#000000" stroke-width="6.875" stroke-miterlimit="8" fill="none" fill-rule="evenodd"/><path d="M2310.5 615.5 2310.5 1986.51" stroke="#000000" stroke-width="6.875" stroke-miterlimit="8" fill="none" fill-rule="evenodd"/><path d="M0 0 80.1643 0.000360892" stroke="#000000" stroke-width="6.875" stroke-miterlimit="8" fill="none" fill-rule="evenodd" transform="matrix(1 0 0 -1 2230.5 1986.5)"/><path d="M2233.94 615.5 2233.94 637.676 2227.06 637.676 2227.06 615.5ZM2244.25 633.092 2230.5 660.592 2216.75 633.092Z"/><text font-family="Aptos,Aptos_MSFontService,sans-serif" font-weight="400" font-size="37" transform="matrix(0.77749 -0.628895 0.628895 0.77749 2274.38 573)">Intersection Test</text><path d="M2082.5 567.5 2082.5 2095.21" stroke="#4E67C8" stroke-width="6.875" stroke-miterlimit="8" stroke-dasharray="27.5 20.625" fill="none" fill-rule="evenodd"/><text font-family="Aptos,Aptos_MSFontService,sans-serif" font-weight="400" font-size="37" transform="matrix(1 0 0 1 2003.59 2145)">BVH sort?</text><path d="M2735.5 749.167C2735.5 732.23 2749.23 718.5 2766.17 718.5L2888.83 718.5C2905.77 718.5 2919.5 732.23 2919.5 749.167L2919.5 1979.83C2919.5 1996.77 2905.77 2010.5 2888.83 2010.5L2766.17 2010.5C2749.23 2010.5 2735.5 1996.77 2735.5 1979.83Z" stroke="#1C2753" stroke-width="6.875" stroke-miterlimit="8" fill="#4E67C8" fill-rule="evenodd"/><path d="M2787.5 652.5 2787.5 1986.75" stroke="#000000" stroke-width="6.875" stroke-miterlimit="8" fill="none" fill-rule="evenodd"/><path d="M2867.5 615.5 2867.5 1986.51" stroke="#000000" stroke-width="6.875" stroke-miterlimit="8" fill="none" fill-rule="evenodd"/><path d="M0 0 80.1643 0.000360892" stroke="#000000" stroke-width="6.875" stroke-miterlimit="8" fill="none" fill-rule="evenodd" transform="matrix(1 0 0 -1 2787.5 1986.5)"/><path d="M2789.94 615.5 2789.94 637.676 2783.06 637.676 2783.06 615.5ZM2800.25 633.092 2786.5 660.592 2772.75 633.092Z"/><text font-family="Aptos,Aptos_MSFontService,sans-serif" font-weight="400" font-size="37" transform="matrix(0.77749 -0.628895 0.628895 0.77749 2830.67 573)">Content Assembly</text><path d="M2638.5 567.5 2638.5 2095.21" stroke="#4E67C8" stroke-width="6.875" stroke-miterlimit="8" stroke-dasharray="27.5 20.625" fill="none" fill-rule="evenodd"/><text font-family="Aptos,Aptos_MSFontService,sans-serif" font-weight="400" font-size="37" transform="matrix(1 0 0 1 2536.4 2145)">Z</text><text font-family="Aptos,Aptos_MSFontService,sans-serif" font-weight="400" font-size="37" transform="matrix(1 0 0 1 2555.3 2145)">-</text><text font-family="Aptos,Aptos_MSFontService,sans-serif" font-weight="400" font-size="37" transform="matrix(1 0 0 1 2567.91 2145)">index sort?</text><text font-family="Aptos,Aptos_MSFontService,sans-serif" font-weight="400" font-size="37" transform="matrix(1 0 0 1 341.851 621)">Commands</text><text font-family="Aptos,Aptos_MSFontService,sans-serif" font-weight="400" font-size="37" transform="matrix(1 0 0 1 3208.29 624)">Content</text><text font-family="Aptos,Aptos_MSFontService,sans-serif" font-weight="400" font-size="37" transform="matrix(1 0 0 1 1626.46 2145)">Topological</text><text font-family="Aptos,Aptos_MSFontService,sans-serif" font-weight="400" font-size="37" transform="matrix(1 0 0 1 1678.02 2189)">sort?</text><path d="M1718.5 567.5 1718.5 2095.21" stroke="#4E67C8" stroke-width="6.875" stroke-miterlimit="8" stroke-dasharray="27.5 20.625" fill="none" fill-rule="evenodd"/></g></svg>